<?xml version="1.0" encoding="utf-8"?>
<!-- Generator: Adobe Illustrator 25.3.0, SVG Export Plug-In . SVG Version: 6.00 Build 0)  -->
<svg version="1.1" id="Layer_1" xmlns="http://www.w3.org/2000/svg" xmlns:xlink="http://www.w3.org/1999/xlink" x="0px" y="0px"
	 viewBox="0 0 32 32" style="enable-background:new 0 0 32 32;" xml:space="preserve">
<style type="text/css">
	.st0{fill:#04A056;}
	.st1{fill:#0B0C0C;}
	.st2{fill:#F7F8E3;}
</style>
<rect class="st0" width="32" height="32"/>
<path class="st1" d="M3.8,1c0,0,4.9,0.1,5.2,2.7c0,0,0.8-0.9,1.2-2.7c0,0,2.3-1.5,3.7,1.4c0,0,1.1-2.2,3.1-1.7c0,0-1,1-0.9,2.8
	c0,0,3.1-4.2,5.2-2.2c0,0,0.9,0.9,1.6,2.8c0,0,1.8-1.7,1.8-3.5c0,0,2.8,0.3,2.3,4.3c0,0,1.1,0.2,2.6-1.3c0,0,0.3,3.9-2.3,7.5
	c0,0,1,0.6,2.8-0.4c0,0,1.1,4.3-2.8,5.7c0,0,0.6,1.4,2.5,1.9c0,0-1.4,1.1-2.2,3.2c0,0,1.5-0.6,2.3,1.6c0,0-1.7-0.5-4.1,2.4
	c0,0,2.4-0.4,3,1c0,0-1.4,3.5-4,1.6c0,0-0.8,0.9-0.6,3.1c0,0-2.4-1.1-2.6-3.6c0,0-1.9-0.2-3.2,2.5c0,0-1.2-1-0.9-4.8
	c0,0-1.5,1.4-2.2,4.3c0,0,0.6-2.5-0.8-3.8c0,0-0.8,4.3-2.7,4.6c0,0,0.7-1.8-0.4-3.8c0,0-0.9,4.5-2.6,4.1c0,0-0.7-1.2-1.3-4.7
	c0,0-1.2,0.7-2.3,3.7c0,0-1-3.2,0.6-6.2c0,0-1.9,0.7-3,4.1c0,0,0.6-3.2,1-5.3c0,0-0.4,0.6-1.7,0.1c0,0-0.2-3.2,1.6-5
	c0,0-0.9-2-1.8-1.6c0,0,2.1-0.3,2.8-2c0,0-1.2,0.3-2.5-1.4c0,0,0.8-1.8,2.3-3c0,0-1.6-1.1-3-0.4c0,0,0.6-4,3.9-3.3
	C5.5,5.6,3.3,4.4,3.8,1z"/>
<path class="st2" d="M14.4,7c-4-0.5-6.8,0.7-6.8,0.7c-0.2,0.8-0.2,1.6-0.2,2.5c0,3.7,1.6,6.7,3.6,6.7c2,0,3.6-3,3.6-6.7
	C14.4,8.7,14.4,7.9,14.4,7z"/>
<path class="st2" d="M17.4,7c4-0.5,6.8,0.7,6.8,0.7c0.2,0.8,0.2,1.6,0.2,2.5c0,3.7-1.6,6.7-3.6,6.7c-2,0-3.6-3-3.6-6.7
	C17.3,8.7,17.3,7.9,17.4,7z"/>
</svg>
